<svg aria-hidden="true" style="position:absolute;width:0;height:0;overflow:hidden" xmlns="http://www.w3.org/2000/svg"><defs><symbol id="art" viewBox="0 0 32 32"><path fill="#ed3b44" style="fill:var(--color1, #ed3b44)" d="M6.667 0h18.667a6.667 6.667 0 0 1 6.667 6.667v18.667a6.667 6.667 0 0 1-6.667 6.667H6.667A6.667 6.667 0 0 1 0 25.334V6.667A6.667 6.667 0 0 1 6.667 0z"/><path fill="none" stroke="#fafafa" style="stroke:var(--color2, #fafafa)" stroke-linejoin="round" stroke-linecap="round" stroke-width="1.333" d="M16.519 18 14 15.482M9.333 22.667c1.333 0 3.072.228 3.983-.683a2.334 2.334 0 0 0-3.3-3.3c-.911.911 0 2.65-.683 3.983z"/><path fill="none" stroke="#fafafa" style="stroke:var(--color2, #fafafa)" stroke-linejoin="round" stroke-linecap="round" stroke-width="1.333" d="M13.333 18.667c-.328-.328-.491-.491-.584-.663a1.332 1.332 0 0 1 .025-1.311c.099-.168.269-.325.609-.64l6.579-6.091a1.47 1.47 0 0 1 2.077 2.077l-6.091 6.579c-.315.34-.472.51-.64.609-.403.238-.9.247-1.311.025-.172-.093-.335-.256-.663-.584z"/></symbol><symbol id="close" viewBox="0 0 32 32"><path stroke-linejoin="round" stroke-linecap="round" stroke-width="2.667" d="M24 8 8 24M8 8l16 16"/></symbol><symbol id="communication" viewBox="0 0 32 32"><path fill="#ed3b44" style="fill:var(--color1, #ed3b44)" d="M6.667 0h18.667a6.667 6.667 0 0 1 6.667 6.667v18.667a6.667 6.667 0 0 1-6.667 6.667H6.667A6.667 6.667 0 0 1 0 25.334V6.667A6.667 6.667 0 0 1 6.667 0z"/><path fill="none" stroke="#fafafa" style="stroke:var(--color2, #fafafa)" stroke-linejoin="round" stroke-linecap="round" stroke-width="1.333" d="M12.063 15.486a5.398 5.398 0 0 1-.063-.819c0-2.946 2.403-5.333 5.368-5.333s5.368 2.388 5.368 5.333c0 .665-.123 1.302-.347 1.89-.047.122-.07.183-.08.231s-.015.08-.016.129c-.001.049.005.102.019.21l.268 2.18c.029.236.044.354.004.44a.334.334 0 0 1-.171.168c-.087.037-.204.02-.44-.014l-2.123-.311c-.111-.016-.166-.024-.217-.024s-.084.004-.133.014-.113.034-.239.081a5.379 5.379 0 0 1-2.714.279m-3.459 2.727c1.977 0 3.579-1.642 3.579-3.667s-1.602-3.667-3.579-3.667S9.509 16.975 9.509 19c0 .407.065.799.184 1.164.051.155.076.232.084.285.009.055.01.086.007.142a1.563 1.563 0 0 1-.043.234l-.408 1.841 1.997-.273c.109-.015.163-.022.211-.022.05 0 .077.003.126.013.047.009.116.034.255.083a3.5 3.5 0 0 0 1.166.199z"/></symbol><symbol id="expertise" viewBox="0 0 32 32"><path fill="#ed3b44" style="fill:var(--color1, #ed3b44)" d="M6.667 0h18.667a6.667 6.667 0 0 1 6.667 6.667v18.667a6.667 6.667 0 0 1-6.667 6.667H6.667A6.667 6.667 0 0 1 0 25.334V6.667A6.667 6.667 0 0 1 6.667 0z"/><path fill="none" stroke="#fafafa" style="stroke:var(--color2, #fafafa)" stroke-linejoin="round" stroke-linecap="round" stroke-width="1.333" d="M21.333 22c0-.93 0-1.396-.115-1.774a2.67 2.67 0 0 0-1.778-1.778c-.379-.115-.844-.115-1.774-.115h-3.333c-.93 0-1.396 0-1.774.115a2.67 2.67 0 0 0-1.778 1.778c-.115.379-.115.844-.115 1.774M16 16a3 3 0 1 0 0-6 3 3 0 0 0 0 6z"/></symbol><symbol id="burger" viewBox="0 0 32 32"><path stroke-linejoin="round" stroke-linecap="round" stroke-width="2.286" d="M4 11.333h24M4 20.667h24"/></symbol><symbol id="urgent" viewBox="0 0 32 32"><path fill="#ed3b44" style="fill:var(--color1, #ed3b44)" d="M6.667 0h18.667a6.667 6.667 0 0 1 6.667 6.667v18.667a6.667 6.667 0 0 1-6.667 6.667H6.667A6.667 6.667 0 0 1 0 25.334V6.667A6.667 6.667 0 0 1 6.667 0z"/><path fill="none" stroke="#fafafa" style="stroke:var(--color2, #fafafa)" stroke-linejoin="round" stroke-linecap="round" stroke-width="1.333" d="M20.108 9.333h-8.217a.558.558 0 0 0-.558.558 6.7 6.7 0 0 0 1.962 4.737l.813.813c.081.081.121.121.15.16a.668.668 0 0 1 0 .797c-.029.039-.069.079-.15.16l-.813.813a6.7 6.7 0 0 0-1.962 4.737c0 .308.25.558.558.558h8.217c.308 0 .558-.25.558-.558a6.7 6.7 0 0 0-1.962-4.737l-.813-.813a1.653 1.653 0 0 1-.15-.16.668.668 0 0 1 0-.797c.029-.039.069-.079.15-.16l.813-.813a6.7 6.7 0 0 0 1.962-4.737.558.558 0 0 0-.558-.558z"/></symbol><symbol id="icon-open" viewBox="0 0 32 32"><path fill="none" stroke="#fafafa" style="stroke:var(--color1, #fafafa)" stroke-width="3.2" d="m24 12-8 8-8-8"/></symbol><symbol id="arrow-black" viewBox="0 0 32 32"><path stroke-linejoin="round" stroke-linecap="round" stroke-width="2" d="M26.667 16H5.334M13.333 24l-8-8 8-8"/></symbol><symbol id="arrow-white" viewBox="0 0 32 32"><path fill="none" stroke="#fafafa" style="stroke:var(--color1, #fafafa)" stroke-linejoin="round" stroke-linecap="round" stroke-width="2" d="M5.333 16h21.333M18.667 8l8 8-8 8"/></symbol></defs></svg>